<svg width="121" height="34" viewBox="0 0 161 40" xmlns="http://www.w3.org/2000/svg" xml:space="preserve" style="fill-rule:evenodd;clip-rule:evenodd;stroke-linejoin:round;stroke-miterlimit:2"><path d="M156.887 14.801v15.361h-3.84V14.801h-2.616v-3.823h2.635l-.015-6h3.839v6H161v3.823h-4.113Zm-23.345 4.179a6.215 6.215 0 0 1 3.006-4.468 5.278 5.278 0 0 1 5.201.016 5.99 5.99 0 0 1 3.006 4.434h-11.213v.018Zm14.238-2.77a9.801 9.801 0 0 0-3.465-4.198 8.948 8.948 0 0 0-5.166-1.563 9.088 9.088 0 0 0-4.827 1.359 10.174 10.174 0 0 0-4.792 8.732 10.174 10.174 0 0 0 4.792 8.732 9 9 0 0 0 8.411.629 9.574 9.574 0 0 0 3.007-2.037 10.333 10.333 0 0 0 2.106-3.006h-4.553a5.81 5.81 0 0 1-1.427 1.207 5.473 5.473 0 0 1-7.223-1.648 6.471 6.471 0 0 1-1.004-2.515h14.987a11.005 11.005 0 0 0-.846-5.692Zm-21.206-9.94a2.037 2.037 0 1 1-4.075.001 2.037 2.037 0 0 1 4.075-.001m-8.327 33.423V35.87a4.416 4.416 0 0 0 3.789-2.107c.39-.645.579-1.359.579-2.142V10.993h3.839v20.644a8.091 8.091 0 0 1-8.226 8.072m-4.245-9.581h3.824V1.412h-3.805v28.716h-.019ZM109.31 6.27a2.037 2.037 0 1 1-4.074.002 2.037 2.037 0 0 1 4.074-.002m-3.978 23.873h3.84v-19.15h-3.84v19.15Zm-14.713-3.21a5.26 5.26 0 0 0 2.991-.849c.883-.579 1.547-1.359 2.037-2.311.475-.969.714-2.038.714-3.211 0-1.189-.239-2.261-.714-3.229a5.726 5.726 0 0 0-2.037-2.312 5.894 5.894 0 0 0-6.117 0 6.355 6.355 0 0 0-3.075 5.541 6.425 6.425 0 0 0 3.126 5.522 5.808 5.808 0 0 0 3.075.849Zm9.924-15.94v19.15h-3.874v-2.921a6.918 6.918 0 0 1-6.116 3.399c-5.547-.053-10.037-4.528-10.11-10.075.048-5.565 4.547-10.065 10.11-10.109a6.908 6.908 0 0 1 6.116 3.434v-2.89h3.859l.015.012Zm-52.429 0h3.865v2.208a7.291 7.291 0 0 1 1.274-1.378 4.895 4.895 0 0 1 3.194-1.088c1.412 0 2.667.324 3.774.969 1.104.629 2.038 1.528 2.786 2.685a7.48 7.48 0 0 1 6.541-3.654c1.597 0 3.025.409 4.298 1.224a8.276 8.276 0 0 1 2.956 3.295c.698 1.377 1.053 2.89 1.053 4.538V30.14h-3.839V19.792c0-.969-.17-1.852-.544-2.635a4.546 4.546 0 0 0-1.582-1.887 4.095 4.095 0 0 0-2.361-.698c-.884 0-1.667.22-2.381.679a4.832 4.832 0 0 0-1.647 1.902c-.39.799-.579 1.683-.579 2.636v10.348h-3.839V19.789a5.983 5.983 0 0 0-.595-2.636 4.777 4.777 0 0 0-1.666-1.886 4.227 4.227 0 0 0-2.381-.698c-.849 0-1.613.239-2.276.729a5.117 5.117 0 0 0-1.614 1.972 6.216 6.216 0 0 0-.578 2.685v10.179h-3.859V10.993Z" style="fill:#131b20;fill-rule:nonzero"/><path d="m0 15.26 14.547 6.591 2.921-2.905-7.443-3.381 23.074-8.836-8.867 22.974-3.365-7.377-2.94 2.925.154.339 6.44 14.119L39.863 0 0 15.26Z" style="fill:#9585f4;fill-rule:nonzero"/></svg>